<svg width="129" height="34" viewBox="0 0 129 34" fill="none" xmlns="http://www.w3.org/2000/svg">
<path d="M48.1401 31.6398C49.992 31.5979 51.5506 31.1767 52.8559 30.3342C54.1181 29.5341 55.0875 28.3972 55.7185 27.009C56.3922 25.6195 56.7292 24.1038 56.7292 22.4192C56.7292 21.0312 56.5602 19.8947 56.2236 19.0098C55.8869 18.0835 55.4234 17.3261 54.8771 16.6946C54.1181 15.8102 53.1497 15.0948 52.0136 14.5896C50.8769 14.0843 49.5726 13.6215 48.0986 13.2005C47.4247 12.9893 46.6244 12.6953 45.6987 12.232C44.7723 11.8108 43.973 11.3047 43.2985 10.6739C42.7935 10.1265 42.4151 9.49606 42.2471 8.86283C42.0781 8.23176 41.9938 7.6007 41.9938 7.01092C41.9938 6.25338 42.1624 5.53822 42.4983 4.78068C42.7934 4.02206 43.3408 3.39056 44.0993 2.88532C44.8566 2.38007 45.8251 2.08583 47.0879 2.08583C48.0558 2.08583 48.94 2.21209 49.6982 2.54892C50.4558 2.84294 51.1294 3.2643 51.677 3.89559C52.5193 4.8224 53.1497 5.66404 53.4866 6.46439C53.8658 7.26387 54.1609 7.93753 54.2867 8.56967C54.3293 8.69571 54.4136 8.73722 54.5396 8.69571L55.044 8.56967C55.1294 8.56967 55.1711 8.52687 55.2131 8.44212C55.2561 8.40061 55.2561 8.31651 55.2561 8.23177C55.2561 7.89559 55.1711 7.26387 55.0875 6.42201C55.0021 5.53822 54.9184 4.65356 54.7928 3.7276C54.7081 2.80122 54.6661 2.08583 54.6661 1.53735C54.6661 1.32765 54.6231 1.1588 54.5818 1.03319C54.5396 0.907151 54.4555 0.821972 54.3293 0.821972C54.2448 0.821972 54.1181 0.864345 54.0768 0.907151C53.9922 0.949093 53.8658 0.990818 53.7817 1.0747L53.2351 1.58016C53.1497 1.7075 53.0237 1.74857 52.8972 1.74857C52.771 1.79116 52.603 1.7075 52.4346 1.62253C52.0558 1.41218 51.4662 1.20117 50.5824 0.990818C49.6982 0.737873 48.6884 0.611616 47.4673 0.569458C46.3306 0.569458 45.236 0.737872 44.2249 1.03319C43.2146 1.37002 42.3312 1.87483 41.573 2.59C40.8994 3.22214 40.31 4.02206 39.7626 4.94866C39.2583 5.91699 39.0045 6.92704 38.9629 7.97925C38.9629 9.36937 39.1316 10.5478 39.5099 11.5572C39.8465 12.569 40.3522 13.4526 41.0676 14.1256C42.0361 15.0526 43.1311 15.8102 44.3096 16.3578C45.5311 16.905 46.4981 17.3261 47.2142 17.5361C48.94 18.0835 50.4558 18.8836 51.7192 19.8947C52.982 20.9463 53.6561 22.5461 53.6982 24.6503C53.6561 25.9146 53.3603 26.924 52.771 27.7244C52.1827 28.5236 51.4662 29.0723 50.5824 29.4511C49.6982 29.8294 48.8559 29.9981 47.9726 29.9981C46.7934 29.9981 45.6561 29.7027 44.646 29.1975C43.5936 28.651 42.7098 27.8934 42.0781 26.8832C41.4048 25.8301 40.9835 24.9028 40.8157 24.1457C40.6467 23.3875 40.5623 22.6724 40.5623 21.9987C40.5623 21.8722 40.52 21.7892 40.478 21.7468C40.478 21.7045 40.3944 21.6617 40.31 21.6617L39.679 21.6199C39.5942 21.6199 39.5521 21.6199 39.4673 21.6617C39.4256 21.6617 39.4256 21.7468 39.3839 21.8722C39.3413 22.336 39.2583 23.0935 39.1733 24.1457C39.0888 25.241 39.0045 26.2938 38.9201 27.303C38.7941 28.3559 38.7098 29.0723 38.6674 29.4939C38.6253 29.7458 38.6674 29.9127 38.7522 29.9981C38.7941 30.1239 38.9201 30.1665 39.0466 30.1665C39.1733 30.1665 39.3413 30.1665 39.4256 30.0813C39.5521 30.04 39.679 29.872 39.8039 29.6614C39.9306 29.4509 40.0577 29.2818 40.1416 29.1551C40.2255 29.0302 40.3522 28.945 40.478 28.945C40.5623 28.945 40.689 28.9867 40.8572 29.0721C40.9835 29.1134 41.1945 29.2818 41.4464 29.4509C42.2891 30.1237 43.2146 30.6293 44.3096 31.0503C45.4048 31.4299 46.6672 31.6398 48.1401 31.6398ZM73.9881 19.8095C74.3247 19.8095 74.6192 19.768 74.8302 19.6833C75.0408 19.6 75.1668 19.431 75.1668 19.1357C75.1668 18.5465 74.998 17.7473 74.6194 16.8207C74.2824 15.8517 73.6517 14.9675 72.7245 14.1689C71.8413 13.4104 70.5777 12.9893 68.9781 12.9476C67.9265 12.9476 66.8734 13.0736 65.8625 13.3685C64.8527 13.663 63.8835 14.2942 62.9584 15.1793C61.8638 16.3156 61.1478 17.5361 60.811 18.7573C60.4313 19.9786 60.264 21.0312 60.3055 21.8722C60.3055 23.3049 60.4313 24.5241 60.6847 25.4935C60.9374 26.5029 61.4427 27.5147 62.1574 28.5238C62.9584 29.6619 63.9682 30.419 65.1469 30.8827C66.3258 31.3032 67.5475 31.514 68.7684 31.514C70.0303 31.471 71.0838 31.2187 72.0089 30.7139C72.8942 30.1669 73.6517 29.5771 74.2404 28.8622C74.7878 28.1459 75.2092 27.5149 75.4619 26.9242C75.5456 26.7145 75.5875 26.545 75.5875 26.4618C75.5875 26.3779 75.5456 26.294 75.4619 26.294L74.9149 25.9991C74.83 25.9991 74.7878 25.9991 74.7035 26.0417C74.619 26.0824 74.5779 26.1248 74.5357 26.2086C74.1568 26.9242 73.5661 27.5983 72.6834 28.1459C71.7985 28.7364 70.747 29.0306 69.4407 29.0725C67.7144 29.0306 66.2834 28.3563 65.1889 27.0092C64.0947 25.6625 63.5043 23.9354 63.4639 21.8307C63.4639 20.8618 63.5045 20.1896 63.5888 19.8098H73.9881V19.8095ZM63.7575 18.5465C64.1784 16.9882 64.7682 15.8952 65.5683 15.2208C66.3682 14.5472 67.2524 14.2101 68.1777 14.2101C69.0626 14.2521 69.778 14.5057 70.2409 14.9675C70.7046 15.431 71.0408 15.979 71.2092 16.5673C71.3357 17.1575 71.42 17.6212 71.42 17.9574C71.42 18.168 71.3357 18.2938 71.1659 18.3788C70.9569 18.505 70.6622 18.5465 70.2837 18.5465H63.7575ZM93.9842 16.1885C93.9006 15.8517 93.9421 15.6007 94.0688 15.3888C94.1942 15.2208 94.3637 15.0948 94.5731 15.0948H95.4582C95.6675 15.0948 95.7523 14.9675 95.7523 14.758V13.8727C95.7523 13.7892 95.7103 13.7049 95.6673 13.663C95.6267 13.6215 95.4997 13.5784 95.3726 13.5784C95.2057 13.5784 94.8691 13.6215 94.3637 13.6215C93.858 13.663 93.1428 13.7049 92.1745 13.7049C91.1203 13.7049 90.2793 13.663 89.6055 13.6215C88.9742 13.6215 88.5528 13.5784 88.384 13.5784C88.2581 13.5784 88.1747 13.6215 88.0897 13.663C88.0482 13.7049 88.0059 13.7892 88.0059 13.9159V14.7995C88.0059 15.0096 88.0897 15.0948 88.3018 15.0948H88.9322C89.2269 15.0948 89.4799 15.1363 89.6485 15.1793C89.8162 15.2626 89.9845 15.3478 90.0683 15.5151C90.1957 15.6841 90.2796 15.8517 90.3209 16.0623C90.363 16.2733 90.4058 16.5256 90.4482 16.8624L86.1539 27.1355H85.9857L82.659 15.979C82.5334 15.6007 82.5334 15.3054 82.659 15.1363C82.7439 14.926 82.9124 14.8425 83.1651 14.8425H83.5436C83.6701 14.8425 83.7955 14.7995 83.8381 14.758C83.8802 14.6732 83.8802 14.5896 83.8802 14.5057V13.6627C83.8802 13.5363 83.8381 13.4524 83.7953 13.4102C83.7533 13.3683 83.6699 13.327 83.5434 13.327C83.2494 13.327 82.7861 13.3683 82.238 13.3683C81.6909 13.4102 80.934 13.4524 80.0065 13.4524C78.8274 13.4524 77.9853 13.4102 77.3966 13.3683C76.8488 13.3683 76.4276 13.327 76.1758 13.327C76.0915 13.327 76.0078 13.3683 75.9659 13.4102C75.9237 13.4945 75.9237 13.5782 75.9237 13.6627V14.4631C75.9237 14.5893 75.9237 14.673 75.9659 14.7578C76.0076 14.7993 76.0915 14.8423 76.2182 14.8423H77.1445C77.6489 14.8423 78.0283 14.9257 78.2806 15.0946C78.5751 15.3052 78.7863 15.5568 78.9126 15.9788L84.4276 30.7969C84.5111 31.0505 84.5965 31.2604 84.7227 31.3873C84.8488 31.5546 84.9744 31.6396 85.1435 31.6396C85.311 31.6396 85.4801 31.5977 85.6489 31.4705C85.7745 31.3873 85.9014 31.2183 86.0286 30.966L91.2059 18.8403H91.4163L95.5419 30.8393C95.6271 31.0922 95.7525 31.303 95.8789 31.4297C96.0061 31.5546 96.1315 31.6396 96.2999 31.6396C96.4676 31.6396 96.6365 31.5977 96.7636 31.5546C96.889 31.4703 97.0159 31.3028 97.0996 31.092C97.2691 30.6719 97.6468 29.7453 98.2795 28.1877C98.8682 26.6711 99.5413 24.9869 100.299 23.135C101.057 21.2412 101.774 19.5996 102.363 18.1247C102.953 16.6942 103.331 15.8098 103.499 15.5566C103.626 15.3473 103.836 15.1789 104.089 15.0522C104.342 14.9255 104.594 14.8421 104.847 14.8421H105.899C106.109 14.8421 106.194 14.7145 106.194 14.5052V13.621C106.194 13.5361 106.151 13.4522 106.109 13.41C106.067 13.3681 105.984 13.3268 105.899 13.3268C105.646 13.3268 105.309 13.3681 104.847 13.3681C104.383 13.41 103.711 13.4522 102.825 13.4522C101.941 13.4522 101.226 13.41 100.637 13.3681C100.089 13.3681 99.7112 13.3268 99.5841 13.3268C99.5002 13.3268 99.4163 13.3681 99.3731 13.41C99.3315 13.4522 99.2898 13.5361 99.2898 13.621V14.5052C99.2898 14.5891 99.2898 14.6728 99.3313 14.7575C99.3728 14.7991 99.4582 14.8421 99.541 14.8421H100.131C100.553 14.8421 100.847 15.0522 100.973 15.4306C101.099 15.8513 101.016 16.4002 100.763 17.1571L97.3521 26.4188H97.185L93.9842 16.1885ZM119.369 23.5138V17.073C119.369 16.4841 119.326 15.979 119.243 15.474C119.115 14.9675 118.863 14.5057 118.442 14.0843C118.148 13.7892 117.768 13.5365 117.263 13.3272C116.8 13.0736 116.042 12.9476 115.074 12.9476C114.148 12.9476 113.264 13.0736 112.464 13.2835C111.664 13.5365 110.823 13.9159 109.937 14.4211C109.054 14.926 108.38 15.557 107.834 16.2733C107.328 16.9882 107.033 17.704 107.033 18.3788C107.033 18.8406 107.118 19.2191 107.285 19.431C107.454 19.6405 107.706 19.7254 108.044 19.7254C108.886 19.7254 109.475 19.5144 109.812 19.0942C110.149 18.6739 110.274 18.0835 110.274 17.3261C110.232 16.9469 110.191 16.6099 110.149 16.2733C110.108 15.9364 110.232 15.6424 110.486 15.3888C110.823 15.0948 111.243 14.8847 111.749 14.758C112.295 14.5896 112.758 14.5057 113.223 14.5057C113.854 14.5057 114.359 14.5896 114.781 14.758C115.201 14.926 115.539 15.1363 115.748 15.431C115.959 15.7257 116.127 16.1055 116.169 16.5256C116.254 16.9882 116.296 17.4094 116.337 17.7884V20.4836C115.959 20.7787 115.327 21.1571 114.401 21.6199C113.517 22.0415 112.548 22.5044 111.58 22.9262C109.937 23.6411 108.843 24.441 108.213 25.2833C107.623 26.1671 107.328 27.0518 107.37 28.019C107.412 29.3248 107.707 30.251 108.256 30.7556C108.802 31.2604 109.349 31.5138 109.896 31.5138C110.359 31.5138 110.78 31.5138 111.201 31.4708C111.581 31.4708 112.001 31.3875 112.381 31.2604C113.306 30.9242 114.149 30.5881 114.863 30.1239C115.539 29.7027 116.127 29.2399 116.548 28.6929H116.633C116.842 29.5769 117.179 30.251 117.685 30.7556C118.232 31.2604 118.863 31.5138 119.621 31.5138C120.673 31.4708 121.431 31.2185 121.938 30.7137C122.443 30.251 122.737 29.8294 122.906 29.4511C123.031 29.2399 123.074 29.0723 123.074 28.9452C123.074 28.8617 123.031 28.7361 122.947 28.6929L122.527 28.3559C122.443 28.3146 122.358 28.272 122.315 28.3146C122.274 28.3559 122.189 28.4406 122.106 28.5236C121.979 28.6929 121.811 28.8185 121.559 28.9452C121.264 29.0723 120.969 29.1553 120.631 29.1553C120.253 29.1975 119.959 28.9452 119.706 28.4821C119.495 28.019 119.37 27.1776 119.37 25.9989V23.5138H119.369ZM116.296 26.9238C116.211 27.5142 115.79 28.1033 115.032 28.6507C114.233 29.1973 113.516 29.4937 112.843 29.5339C112.21 29.5339 111.664 29.3663 111.285 28.945C110.864 28.5662 110.654 28.0188 110.654 27.2189C110.695 26.0819 111.073 25.1566 111.789 24.4836C112.507 23.8506 113.264 23.3049 114.148 22.8836C115.032 22.5044 115.747 22.1245 116.296 21.7468V26.9238Z" fill="black"/>
<path d="M0 17.0001C0 7.61107 7.61107 0 17.0003 0C25.837 0 33.0993 6.74349 33.9217 15.3642H27.4558V18.6354H33.9217C33.0993 27.2578 25.837 34 17.0003 34C7.61107 34 0 26.3894 0 17.0001Z" fill="#62BB46"/>
<path d="M21.8104 13.8398C22.1701 13.7836 22.4778 13.688 22.6881 13.5631C22.8991 13.4377 23.0055 13.2353 22.9558 12.9214C22.8561 12.2923 22.5407 11.4673 21.9796 10.5418C21.456 9.56479 20.6321 8.72748 19.5083 8.03069C18.4365 7.37065 17.0169 7.13392 15.3017 7.35963C14.1781 7.53863 13.0762 7.8506 12.0467 8.33595C11.0178 8.82217 10.091 9.65992 9.25173 10.7608C8.27453 12.1589 7.7174 13.5827 7.56434 14.9448C7.36588 16.3109 7.36393 17.4636 7.55137 18.3554C7.79372 19.8841 8.13509 21.1655 8.56769 22.1567C9.00829 23.1934 9.71935 24.1861 10.6537 25.1445C11.7001 26.2209 12.9073 26.86 14.243 27.1555C15.5739 27.405 16.9121 27.4241 18.2159 27.218C19.557 26.9586 20.6382 26.5117 21.5421 25.8154C22.3932 25.0823 23.1028 24.3238 23.6106 23.4615C24.0739 22.6043 24.417 21.8595 24.5874 21.1869C24.6412 20.9478 24.6578 20.761 24.6427 20.6711C24.6287 20.5803 24.5699 20.4987 24.4806 20.5119L23.8458 20.291C23.7555 20.3044 23.7113 20.312 23.6277 20.371C23.5457 20.4304 23.5077 20.4819 23.4772 20.5794C23.1938 21.4081 22.6782 22.2272 21.8266 22.9603C20.9826 23.7386 19.9085 24.2311 18.5225 24.4966C16.6725 24.7439 15.0301 24.2659 13.6335 23.0135C12.2376 21.76 11.3159 20.0166 10.9153 17.7769C10.751 16.743 10.6831 16.0162 10.7093 15.5981L21.8104 13.8398ZM10.6747 14.2207C10.8606 12.4866 11.3047 11.2191 12.0456 10.3636C12.7865 9.51053 13.6733 8.99988 14.6615 8.84401C15.6123 8.73937 16.4187 8.88768 16.9914 9.30428C17.5646 9.72002 18.0168 10.248 18.2957 10.849C18.5307 11.4563 18.6989 11.9369 18.756 12.2968C18.7912 12.5212 18.7221 12.6704 18.5567 12.7887C18.3534 12.9588 18.0462 13.0537 17.6417 13.1179L10.6747 14.2207Z" fill="white"/>
<path d="M123.951 13.215H123.069V12.8965H125.217V13.215H124.33V15.7972H123.951V13.215Z" fill="black"/>
<path d="M127.986 14.5227C127.965 14.1234 127.939 13.6281 127.939 13.2706H127.93C127.827 13.6059 127.711 13.9766 127.565 14.3723L127.052 15.7797H126.768L126.295 14.3989C126.157 13.99 126.045 13.6152 125.963 13.2706H125.955C125.946 13.6327 125.924 14.1183 125.899 14.5541L125.821 15.7972H125.464L125.666 12.8965H126.144L126.64 14.2994C126.761 14.657 126.855 14.98 126.933 15.2812H126.94C127.017 14.988 127.122 14.6652 127.251 14.2994L127.767 12.8965H128.246L128.425 15.7972H128.056L127.986 14.5227Z" fill="black"/>
</svg>
